{"accessors":[{"bufferView":1,"byteOffset":0,"componentType":5126,"count":2761,"max":[139.99166666666667],"min":[0.041666666666666664],"type":"SCALAR"},{"bufferView":1,"byteOffset":11044,"componentType":5126,"count":2761,"max":[36.53327560424805,65.84522247314453,61.59135055541992],"min":[-74.55799102783203,1.7000000476837158,-12.661003112792969],"type":"VEC3"},{"bufferView":1,"byteOffset":44176,"componentType":5126,"count":2761,"max":[0.5000278729509506,0.9999958114487417,0.5000278729509506,0.9999999989325099],"min":[-0.5,-0.865676452215531,-0.5,-0.49997212549516],"type":"VEC4"}],"animations":[{"channels":[{"sampler":0,"target":{"node":0,"path":"rotation"}},{"sampler":1,"target":{"node":0,"path":"translation"}}],"name":"Take 001","samplers":[{"input":0,"interpolation":"LINEAR","output":2},{"input":0,"interpolation":"LINEAR","output":1}]}],"asset":{"generator":"ClayGL - fbx2gltf","version":"2.0"},"bufferViews":[{"buffer":0,"byteLength":0,"byteOffset":0,"target":34962},{"buffer":0,"byteLength":88352,"byteOffset":0,"target":34962},{"buffer":0,"byteLength":0,"byteOffset":88352,"target":34963}],"buffers":[{"byteLength":88352,"uri":"camera.bin"}],"cameras":[{"perspective":{"yfov":25.114999771118164,"zfar":10000.0,"znear":0.1},"type":"perspective"}],"meshes":[],"nodes":[{"camera":0,"matrix":[0.9999999957300398,0.0,-9.241168969421815e-05,0.0,0.0,1.0,0.0,0.0,9.241168969421815e-05,0.0,0.9999999957300398,0.0,-74.55799102783203,5.593155860900879,0.0014913107734173536,1.0],"name":"camera3"}],"scene":0,"scenes":[{"nodes":[0]}]}