{"accessors":[{"bufferView":0,"byteOffset":0,"componentType":5126,"count":1036,"max":[44.097488,4.434759,6.292143],"min":[-44.094017,1.007272,-6.224533],"type":"VEC3"},{"bufferView":0,"byteOffset":12432,"componentType":5126,"count":1036,"max":[0.832927,1.0,0.743322],"min":[-0.744731,0.492055,-0.799356],"type":"VEC3"},{"bufferView":0,"byteOffset":24864,"componentType":5126,"count":1036,"max":[1.0,1.0],"min":[0.0,0.0],"type":"VEC2"},{"bufferView":1,"byteOffset":0,"componentType":5123,"count":1950,"max":[1035],"min":[0],"type":"SCALAR"},{"bufferView":0,"byteOffset":33152,"componentType":5126,"count":51,"max":[-33.425579,4.901588,5.749153],"min":[-42.747166,3.602671,-1.056581],"type":"VEC3"},{"bufferView":0,"byteOffset":33764,"componentType":5126,"count":51,"max":[0.013054,1.0,0.455238],"min":[-0.019156,0.890359,-0.010411],"type":"VEC3"},{"bufferView":0,"byteOffset":34376,"componentType":5126,"count":51,"max":[1.0,1.0],"min":[0.0,0.0],"type":"VEC2"},{"bufferView":1,"byteOffset":3900,"componentType":5123,"count":93,"max":[50],"min":[0],"type":"SCALAR"},{"bufferView":0,"byteOffset":34784,"componentType":5126,"count":60,"max":[-33.403858,6.199916,5.735306],"min":[-42.785095,4.901588,-1.093688],"type":"VEC3"},{"bufferView":0,"byteOffset":35504,"componentType":5126,"count":60,"max":[0.0,1.0,1e-06],"min":[-0.026588,0.999646,-0.002391],"type":"VEC3"},{"bufferView":0,"byteOffset":36224,"componentType":5126,"count":60,"max":[1.0,1.0],"min":[0.0,0.0],"type":"VEC2"},{"bufferView":1,"byteOffset":4086,"componentType":5123,"count":120,"max":[59],"min":[0],"type":"SCALAR"}],"asset":{"generator":"ClayGL - fbx2gltf","version":"2.0"},"bufferViews":[{"buffer":0,"byteLength":36704,"byteOffset":0,"target":34962},{"buffer":0,"byteLength":4326,"byteOffset":36704,"target":34963}],"buffers":[{"byteLength":41030,"uri":"navmesh.bin"}],"materials":[{"emissiveFactor":[0.0,0.0,0.0],"name":"pasted__lambert6SG","pbrMetallicRoughness":{"baseColorFactor":[0.68,0.68,0.68,1],"metallicFactor":0,"roughnessFactor":1}},{"emissiveFactor":[0.0,0.0,0.0],"name":"pasted__lambert6SG1","pbrMetallicRoughness":{"baseColorFactor":[0.68,0.68,0.68,1],"metallicFactor":0,"roughnessFactor":1}},{"emissiveFactor":[0.0,0.0,0.0],"name":"lambert6SG","pbrMetallicRoughness":{"baseColorFactor":[0.68,0.68,0.68,1],"metallicFactor":0,"roughnessFactor":1}}],"meshes":[{"name":"group1_pasted__pPlane4","primitives":[{"attributes":{"NORMAL":1,"POSITION":0,"TEXCOORD_0":2},"indices":3,"material":0},{"attributes":{"NORMAL":5,"POSITION":4,"TEXCOORD_0":6},"indices":7,"material":1},{"attributes":{"NORMAL":9,"POSITION":8,"TEXCOORD_0":10},"indices":11,"material":2}]}],"nodes":[{"children":[1],"matrix":[1.0,0.0,0.0,0.0,0.0,1.0,0.0,0.0,0.0,0.0,1.0,0.0,0.0,0.0,0.0,1.0],"name":"navmesh_root"},{"matrix":[1.0,0.0,0.0,0.0,0.0,1.0,0.0,0.0,0.0,0.0,1.0,0.0,0.0,0.0,0.0,1.0],"mesh":0,"name":"group1_pasted__pPlane4"}],"scene":0,"scenes":[{"nodes":[0]}]}